<svg xmlns="http://www.w3.org/2000/svg" viewBox="0 0 300 300" xml:space="preserve"><path fill="#F4F4F4" d="M110.333 252.453h56.601c12.576-8.892 20.808-23.518 20.808-40.091v-39.225H89.525v39.225c0 16.573 8.235 31.199 20.808 40.091z"/><path fill="#F9F9F9" d="M102.754 212.363v-39.225H89.525v39.225c0 16.572 8.235 31.199 20.808 40.091h13.228c-12.572-8.893-20.807-23.519-20.807-40.091z"/><path fill="#AA6148" d="M152.038 225.778c-9.933 9.937-23.687 12.297-30.712 5.273-7.018-7.026-4.662-20.775 5.277-30.711 9.933-9.936 23.681-12.297 30.708-5.272 7.025 7.026 4.665 20.776-5.273 30.71z"/><path fill="#BC715C" d="M131.669 204.99c8.569-8.569 19.96-11.486 27.443-7.627-.526-.848-1.119-1.652-1.837-2.37-7.028-7.024-20.775-4.664-30.709 5.272-9.939 9.936-12.295 23.685-5.276 30.711a12.97 12.97 0 0 0 3.266 2.355c-4.597-7.443-1.81-19.421 7.113-28.341z"/><path fill="#BC715C" d="M124.164 232.245c-2.288 0-4.175-1.828-4.246-4.141-.071-2.359 1.769-4.329 4.119-4.403l.546-.018c6.945-.208 10.113-.301 11.394-11.833 1.719-15.521 13.128-18.512 18.921-17.904 2.339.239 4.039 2.337 3.803 4.686a4.257 4.257 0 0 1-4.624 3.821c-1.418-.111-8.495-.109-9.656 10.344-2.096 18.906-12.207 19.207-19.588 19.43l-.537.016c-.044.002-.088.002-.132.002z"/><path fill="#F4F4F4" d="M99.523 270.49h99.111c9.959 0 18.035-8.075 18.035-18.037H81.485c0 9.963 8.076 18.037 18.038 18.037z"/><path fill="#F9F9F9" d="M99.302 252.453H81.485c0 9.962 8.076 18.037 18.038 18.037h17.817c-9.962 0-18.038-8.074-18.038-18.037z"/><path fill="#F4F4F4" d="M203.055 180.221h-15.313v8.774h15.313a6.588 6.588 0 0 1 6.573 6.264l-4.804 28.999a4.196 4.196 0 0 0-.062.716 6.588 6.588 0 0 1-6.579 6.58h-14.368a48.995 48.995 0 0 1-4.842 8.774h19.21c8.335 0 15.139-6.678 15.348-14.963l4.819-29.072c.038-.238.059-.477.059-.717 0-8.468-6.889-15.355-15.354-15.355z"/><path fill="#9AE8CE" d="M112.152 43.721c-30.23 0-54.741 24.51-54.741 54.74v57.49l20.415-14.879c9.39 7.577 21.319 12.13 34.326 12.13 30.233 0 54.741-24.507 54.741-54.741 0-30.23-24.508-54.74-54.741-54.74z"/><path fill="#AEF4DB" d="M69.884 98.461c0-28.119 21.215-51.261 48.504-54.36-2.049-.233-4.125-.381-6.236-.381-30.23 0-54.741 24.51-54.741 54.74v57.49l12.472-9.09V98.461z"/><path fill="#F4F4F4" d="M187.742 28.603c-18.921 0-35.598 9.602-45.428 24.196 14.802 9.799 24.579 26.582 24.579 45.662a54.496 54.496 0 0 1-9.31 30.545 54.454 54.454 0 0 0 30.159 9.078c13.007 0 24.936-4.553 34.325-12.13l20.415 14.879v-57.49c0-30.23-24.51-54.74-54.74-54.74zM81.485 95.553h8.566v8.567h-8.566zM107.868 95.553h8.569v8.567h-8.569zM134.351 95.553h8.566v8.567h-8.566z"/><path fill="#9AE8CE" d="M183.407 80.435h8.566v8.567h-8.566zM209.89 80.435h8.569v8.567h-8.569z"/><g><path fill="#161616" d="M166.987 256.989h-56.601a4.537 4.537 0 0 1-2.619-.833c-14.228-10.063-22.723-26.434-22.723-43.793v-39.225a4.535 4.535 0 0 1 4.535-4.535h98.215a4.535 4.535 0 0 1 4.535 4.535v39.225c0 17.361-8.495 33.732-22.724 43.793a4.531 4.531 0 0 1-2.618.833zm-55.12-9.071h53.641c11.141-8.417 17.752-21.604 17.752-35.555v-34.69H94.115v34.69c0 13.95 6.61 27.137 17.752 35.555z"/><path fill="#161616" d="M198.688 275.025h-9.201a4.535 4.535 0 0 1 0-9.07h9.201c5.852 0 10.848-3.745 12.717-8.966H86.857c1.868 5.221 6.864 8.966 12.719 8.966h68.988a4.535 4.535 0 0 1 0 9.07H99.576c-12.447 0-22.574-10.126-22.574-22.572a4.535 4.535 0 0 1 4.535-4.535h135.185a4.535 4.535 0 0 1 4.535 4.535c.001 12.446-10.124 22.572-22.569 22.572zM203.108 180.221h-15.313v8.774h15.313a6.59 6.59 0 0 1 6.573 6.264l-4.804 28.999a4.196 4.196 0 0 0-.062.716c0 3.628-2.952 6.58-6.578 6.58h-14.368a48.938 48.938 0 0 1-4.843 8.774h19.211c8.335 0 15.139-6.678 15.348-14.963l4.819-29.072c.038-.238.059-.477.059-.717-.001-8.468-6.89-15.355-15.355-15.355zM57.465 160.486a4.536 4.536 0 0 1-4.536-4.535v-57.49c0-13.615 4.518-26.434 13.063-37.074a4.535 4.535 0 1 1 7.071 5.682C65.825 76.08 62 86.935 62 98.461v48.572l13.209-9.627a4.537 4.537 0 0 1 5.519.136c9.019 7.278 19.904 11.124 31.478 11.124 27.683 0 50.205-22.522 50.205-50.205s-22.522-50.205-50.205-50.205c-8.53 0-16.98 2.203-24.435 6.37a4.54 4.54 0 0 1-6.173-1.746 4.538 4.538 0 0 1 1.747-6.173 59.293 59.293 0 0 1 28.861-7.522c32.685 0 59.276 26.591 59.276 59.276s-26.591 59.276-59.276 59.276c-12.304 0-24.381-3.889-34.379-11.015l-17.691 12.895a4.544 4.544 0 0 1-2.671.869z"/><path fill="#161616" d="M242.536 145.368a4.539 4.539 0 0 1-2.672-.87l-17.69-12.895c-9.998 7.126-22.074 11.015-34.379 11.015a59.012 59.012 0 0 1-32.663-9.831 4.543 4.543 0 0 1-1.258-6.316c5.584-8.293 8.536-17.979 8.536-28.011 0-16.879-8.43-32.535-22.549-41.88a4.536 4.536 0 0 1-1.257-6.316c11.051-16.404 29.44-26.198 49.191-26.198 32.684 0 59.276 26.591 59.276 59.276v57.49a4.53 4.53 0 0 1-2.48 4.042 4.499 4.499 0 0 1-2.055.494zm-78.638-17.883a49.935 49.935 0 0 0 23.896 6.063c11.575 0 22.458-3.846 31.476-11.124a4.542 4.542 0 0 1 5.522-.136L238 131.916V83.343c0-27.683-22.523-50.205-50.205-50.205a50.158 50.158 0 0 0-39.06 18.664c14.325 11.208 22.746 28.323 22.746 46.659 0 10.245-2.607 20.187-7.583 29.024zM81.538 95.553h8.567v8.567h-8.567zM107.921 95.553h8.567v8.567h-8.567zM134.404 95.553h8.567v8.567h-8.567z"/><path fill="#161616" d="M183.46 80.435h8.566v8.567h-8.566zM209.943 80.435h8.569v8.567h-8.569zM131.915 239.771c-5.454 0-10.241-1.846-13.774-5.377-8.929-8.938-6.611-25.244 5.275-37.128 11.885-11.885 28.191-14.195 37.123-5.272 4.468 4.47 6.239 10.947 4.987 18.24-1.152 6.716-4.795 13.422-10.261 18.884v.002c-5.461 5.462-12.168 9.106-18.886 10.259a26.41 26.41 0 0 1-4.464.392zm14.815-44.078c-5.312 0-11.749 2.838-16.901 7.989-8.014 8.012-10.429 19.14-5.274 24.299 2.325 2.322 5.981 3.195 10.29 2.458 4.885-.839 9.859-3.585 14.005-7.733l.001-.001c4.149-4.147 6.898-9.121 7.736-14.005.738-4.308-.136-7.962-2.463-10.29-1.841-1.841-4.444-2.717-7.394-2.717z"/><path fill="#161616" d="M123.278 233.054a4.536 4.536 0 0 1-.137-9.069l1.329-.034c7.147-.173 10.106-.245 11.412-11.965.743-6.66 3.245-11.641 7.441-14.809 5.752-4.343 12.317-3.399 13.041-3.273a4.538 4.538 0 0 1 3.723 5.225c-.413 2.457-2.746 4.11-5.179 3.728-.165-.018-3.546-.433-6.188 1.612-2.087 1.615-3.374 4.482-3.824 8.522-2.184 19.593-12.602 19.844-20.208 20.028l-1.267.034-.143.001z"/></g></svg>